# xmcd
#
# Track frame offsets: 
#        150
#        12595
#        26910
#        40080
#        56290
#        70362
#        83687
#        98177
#        111180
#        124575
#        137227
#        152200
#        168740
#        180637
#
# Disc length: 2627 seconds
#
# Revision: 1
# Processed by: cddbd v1.5.2PL0 Copyright (c) Steve Scherf et al.
# Submitted via: ExactAudioCopy v0.99pb5
#
DISCID=be0a410e
DTITLE=Sandra Weiss - Ich suche nicht das Paradies
DYEAR=1997
DGENRE=Volksmusik
TTITLE0=Ich suche nicht das Paradies
TTITLE1=In fremden Gärten pflückt man nicht
TTITLE2=Novemberrosen
TTITLE3=Heimlichkeiten
TTITLE4=Es wird ein Sommer der Liebe sein
TTITLE5=Der letzte Held dieser Stadt
TTITLE6=Lass' diese Nacht nicht schweigen
TTITLE7=Ich hab' gewußt, daß es dich gibt
TTITLE8=Herzenswünsche
TTITLE9=Junger Mann in Not
TTITLE10=Samstag Nacht
TTITLE11=Wenn Jungs mal weinen
TTITLE12=Lass' mich mal beißen
TTITLE13=In Liebe und für immer
EXTD=
EXTT0=
EXTT1=
EXTT2=
EXTT3=
EXTT4=
EXTT5=
EXTT6=
EXTT7=
EXTT8=
EXTT9=
EXTT10=
EXTT11=
EXTT12=
EXTT13=
PLAYORDER=
